<?xml version="1.0" encoding="UTF-8" standalone="no"?>
<!-- Created with Inkscape (http://www.inkscape.org/) -->

<svg
   xmlns:dc="http://purl.org/dc/elements/1.1/"
   xmlns:cc="http://creativecommons.org/ns#"
   xmlns:rdf="http://www.w3.org/1999/02/22-rdf-syntax-ns#"
   xmlns:svg="http://www.w3.org/2000/svg"
   xmlns="http://www.w3.org/2000/svg"
   xmlns:sodipodi="http://sodipodi.sourceforge.net/DTD/sodipodi-0.dtd"
   xmlns:inkscape="http://www.inkscape.org/namespaces/inkscape"
   width="200"
   height="200"
   viewBox="0 0 52.916665 52.916668"
   version="1.1"
   id="svg5459"
   sodipodi:docname="fit-to-screen.svg"
   inkscape:version="0.92.3 (2405546, 2018-03-11)">
  <defs
     id="defs5453" />
  <sodipodi:namedview
     id="base"
     pagecolor="#ffffff"
     bordercolor="#666666"
     borderopacity="1.0"
     inkscape:pageopacity="0.0"
     inkscape:pageshadow="2"
     inkscape:zoom="2.4363281"
     inkscape:cx="89.285968"
     inkscape:cy="118.14132"
     inkscape:document-units="mm"
     inkscape:current-layer="layer1"
     showgrid="false"
     units="px"
     inkscape:pagecheckerboard="true"
     showguides="true"
     inkscape:guide-bbox="true"
     inkscape:window-width="1920"
     inkscape:window-height="1052"
     inkscape:window-x="0"
     inkscape:window-y="244"
     inkscape:window-maximized="1">
    <sodipodi:guide
       position="-5.9729569,26.389611"
       orientation="0,1"
       id="guide6029"
       inkscape:locked="false" />
    <sodipodi:guide
       position="26.606808,45.503074"
       orientation="1,0"
       inkscape:locked="false"
       id="guide6031" />
  </sodipodi:namedview>
  <metadata
     id="metadata5456">
    <rdf:RDF>
      <cc:Work
         rdf:about="">
        <dc:format>image/svg+xml</dc:format>
        <dc:type
           rdf:resource="http://purl.org/dc/dcmitype/StillImage" />
        <dc:title></dc:title>
      </cc:Work>
    </rdf:RDF>
  </metadata>
  <g
     inkscape:label="Layer 1"
     inkscape:groupmode="layer"
     id="layer1"
     transform="translate(0,-244.08332)">
    <path
       transform="matrix(1,0,-0.09968885,0.99501866,0,0)"
       style="opacity:1;fill:none;fill-opacity:1;fill-rule:nonzero;stroke:#ffffff;stroke-width:2.10046959;stroke-linecap:round;stroke-linejoin:round;stroke-miterlimit:4;stroke-dasharray:none;stroke-opacity:1;paint-order:markers fill stroke"
       d="m 30.701054,249.09256 h 45.423519 v 45.55667 H 30.701054 Z"
       id="rect868-8-0-0-8-3" />
    <g
       aria-label="100%"
       style="font-style:normal;font-weight:normal;font-size:19.44549179px;line-height:1.25;font-family:sans-serif;letter-spacing:0px;word-spacing:0px;fill:#000000;fill-opacity:1;stroke:none;stroke-width:0.48613727"
       id="text1207">
      <path
         d="m 11.63208,274.98944 h 1.653646 v 1.65365 H 8.3247889 v -1.65365 h 1.6536458 v -6.61458 H 8.3247889 v -1.65365 h 0.8268229 v -0.82682 h 0.8268229 v -0.82682 H 11.63208 Z"
         style="font-style:normal;font-variant:normal;font-weight:normal;font-stretch:normal;font-size:16.93333244px;font-family:'VCR OSD Mono';-inkscape-font-specification:'VCR OSD Mono, Normal';font-variant-ligatures:normal;font-variant-caps:normal;font-variant-numeric:normal;font-feature-settings:normal;text-align:start;writing-mode:lr-tb;text-anchor:start;fill:#ffffff;stroke-width:0.48613727"
         id="path6117" />
      <path
         d="m 19.073486,271.68215 v -0.82682 h 0.826823 v -0.82683 h 0.826823 v -0.82682 h 0.826822 v -0.82682 H 23.2076 v -0.82682 h -0.826823 v -0.82683 h -3.307291 v 0.82683 h -0.826823 v 4.13411 z m -0.826823,1.65365 v 0.82682 h 0.826823 v 0.82682 h 3.307291 v -0.82682 H 23.2076 v -4.13412 h -0.826823 v 0.82683 h -0.826823 v 0.82682 h -0.826822 v 0.82682 h -0.826823 v 0.82683 z m 0,-7.44141 v -0.82682 H 23.2076 v 0.82682 h 0.826823 v 0.82682 h 0.826823 v 8.26823 h -0.826823 v 0.82682 H 23.2076 v 0.82683 h -4.960937 v -0.82683 H 17.41984 v -0.82682 h -0.826823 v -8.26823 h 0.826823 v -0.82682 z"
         style="font-style:normal;font-variant:normal;font-weight:normal;font-stretch:normal;font-size:16.93333244px;font-family:'VCR OSD Mono';-inkscape-font-specification:'VCR OSD Mono, Normal';font-variant-ligatures:normal;font-variant-caps:normal;font-variant-numeric:normal;font-feature-settings:normal;text-align:start;writing-mode:lr-tb;text-anchor:start;fill:#ffffff;stroke-width:0.48613727"
         id="path6119" />
      <path
         d="m 28.99536,271.68215 v -0.82682 h 0.826823 v -0.82683 h 0.826823 v -0.82682 h 0.826823 v -0.82682 h 1.653645 v -0.82682 h -0.826823 v -0.82683 H 28.99536 v 0.82683 h -0.826823 v 4.13411 z m -0.826823,1.65365 v 0.82682 h 0.826823 v 0.82682 h 3.307291 v -0.82682 h 0.826823 v -4.13412 h -0.826823 v 0.82683 h -0.826822 v 0.82682 h -0.826823 v 0.82682 h -0.826823 v 0.82683 z m 0,-7.44141 v -0.82682 h 4.960937 v 0.82682 h 0.826823 v 0.82682 h 0.826823 v 8.26823 h -0.826823 v 0.82682 h -0.826823 v 0.82683 h -4.960937 v -0.82683 h -0.826823 v -0.82682 h -0.826823 v -8.26823 h 0.826823 v -0.82682 z"
         style="font-style:normal;font-variant:normal;font-weight:normal;font-stretch:normal;font-size:16.93333244px;font-family:'VCR OSD Mono';-inkscape-font-specification:'VCR OSD Mono, Normal';font-variant-ligatures:normal;font-variant-caps:normal;font-variant-numeric:normal;font-feature-settings:normal;text-align:start;writing-mode:lr-tb;text-anchor:start;fill:#ffffff;stroke-width:0.48613727"
         id="path6121" />
      <path
         d="m 38.09041,268.37486 h 0.826823 v -1.65365 H 38.09041 Z m 5.78776,7.4414 v 0.82683 h -2.480468 v -0.82683 h -0.826823 v -3.30729 h 0.826823 v -0.82682 h 2.480468 v 0.82682 h 0.826823 v 3.30729 z m -1.653646,-0.82682 h 0.826823 v -1.65364 h -0.826823 z m -1.653645,-5.78776 h 0.826823 v -0.82682 h 0.826822 v -0.82682 h 0.826823 v -2.48047 h 1.653646 v 3.30729 H 43.87817 v 0.82682 h -0.826823 v 0.82682 h -0.826823 v 0.82683 h -0.826822 v 0.82682 h -0.826823 v 0.82682 h -0.826823 v 0.82683 h -0.826823 v 0.82682 H 38.09041 v 2.48047 h -1.653646 v -3.30729 h 0.826823 v -0.82683 h 0.826823 v -0.82682 h 0.826823 v -0.82682 h 0.826823 v -0.82683 h -2.480469 v -0.82682 h -0.826823 v -3.30729 h 0.826823 v -0.82682 h 2.480469 v 0.82682 h 0.826823 z m -0.826823,0.82682 h 0.826823 v -0.82682 h -0.826823 z"
         style="font-style:normal;font-variant:normal;font-weight:normal;font-stretch:normal;font-size:16.93333244px;font-family:'VCR OSD Mono';-inkscape-font-specification:'VCR OSD Mono, Normal';font-variant-ligatures:normal;font-variant-caps:normal;font-variant-numeric:normal;font-feature-settings:normal;text-align:start;writing-mode:lr-tb;text-anchor:start;fill:#ffffff;stroke-width:0.48613727"
         id="path6123" />
    </g>
  </g>
</svg>
