<?xml version="1.0" encoding="UTF-8" standalone="no"?>
<svg
   width="388.75"
   zoomAndPan="magnify"
   viewBox="0 0 291.5625 150.60157"
   height="200.80209"
   preserveAspectRatio="xMidYMid"
   version="1.0"
   id="svg19"
   xmlns="http://www.w3.org/2000/svg"
   xmlns:svg="http://www.w3.org/2000/svg">
  <defs
     id="defs2">
    <clipPath
       id="9e9ac059f5">
      <path
         d="M 41.71875,112.19922 H 333.50391 V 262.80078 H 41.71875 Z m 0,0"
         clip-rule="nonzero"
         id="path1" />
    </clipPath>
    <clipPath
       id="1290d8dc52">
      <path
         d="m 58.96875,112.19922 h 257.0625 c 4.57422,0 8.96484,1.82031 12.19922,5.05469 3.23437,3.23437 5.05078,7.62109 5.05078,12.19531 v 116.10156 c 0,4.57422 -1.81641,8.96094 -5.05078,12.19531 -3.23438,3.23438 -7.625,5.05469 -12.19922,5.05469 H 58.96875 c -4.574219,0 -8.964844,-1.82031 -12.199219,-5.05469 C 43.535156,254.51172 41.71875,250.125 41.71875,245.55078 V 129.44922 c 0,-4.57422 1.816406,-8.96094 5.050781,-12.19531 3.234375,-3.23438 7.625,-5.05469 12.199219,-5.05469 z m 0,0"
         clip-rule="nonzero"
         id="path2" />
    </clipPath>
  </defs>
  <g
     clip-path="url(#9e9ac059f5)"
     id="g4"
     transform="translate(-41.718749,-112.19921)">
    <g
       clip-path="url(#1290d8dc52)"
       id="g3">
      <path
         fill="#ff00e4"
         d="M 41.71875,112.19922 H 333.50391 V 262.80078 H 41.71875 Z m 0,0"
         fill-opacity="1"
         fill-rule="nonzero"
         id="path3" />
    </g>
  </g>
  <g
     fill="#ffffff"
     fill-opacity="1"
     id="g7"
     transform="translate(-41.718749,-112.19921)">
    <g
       transform="translate(64.272451,214.12499)"
       id="g6">
      <g
         id="g5">
        <path
           d="M 4.109375,0 H 36.96875 V -8.21875 H 12.328125 V -49.296875 H 36.96875 v -8.21875 H 4.109375 Z M 36.96875,-8.21875 h 8.21875 v -41.078125 h -8.21875 z m 0,0"
           id="path4" />
      </g>
    </g>
  </g>
  <g
     fill="#ffffff"
     fill-opacity="1"
     id="g10"
     transform="translate(-41.718749,-112.19921)">
    <g
       transform="translate(113.56148,214.12499)"
       id="g9">
      <g
         id="g8">
        <path
           d="M 36.96875,-32.859375 H 28.75 V -16.4375 h 8.21875 z m -32.859375,0 h 8.21875 v -24.65625 h -8.21875 z m 8.21875,16.421875 H 20.53125 V -32.859375 H 12.328125 Z M 20.53125,0 H 28.75 v -16.4375 h -8.21875 z m 16.4375,-32.859375 h 8.21875 v -24.65625 h -8.21875 z m 0,0"
           id="path7" />
      </g>
    </g>
  </g>
  <g
     fill="#ffffff"
     fill-opacity="1"
     id="g13"
     transform="translate(-41.718749,-112.19921)">
    <g
       transform="translate(162.8505,214.12499)"
       id="g12">
      <g
         id="g11">
        <path
           d="m 4.109375,-8.21875 h 8.21875 V -49.296875 H 4.109375 Z M 12.328125,0 H 36.96875 V -8.21875 H 12.328125 Z m 0,-49.296875 H 36.96875 v -8.21875 H 12.328125 Z M 36.96875,-8.21875 h 8.21875 v -8.21875 h -8.21875 z m 0,-32.859375 h 8.21875 v -8.21875 h -8.21875 z m 0,0"
           id="path10" />
      </g>
    </g>
  </g>
  <g
     fill="#ffffff"
     fill-opacity="1"
     id="g16"
     transform="translate(-41.718749,-112.19921)">
    <g
       transform="translate(212.13952,214.12499)"
       id="g15">
      <g
         id="g14">
        <path
           d="m 4.109375,0 h 8.21875 V -16.4375 H 36.96875 V 0 h 8.21875 v -49.296875 h -8.21875 v 24.65625 H 12.328125 v -24.65625 h -8.21875 z m 8.21875,-49.296875 H 36.96875 v -8.21875 H 12.328125 Z m 0,0"
           id="path13" />
      </g>
    </g>
  </g>
  <g
     fill="#ffffff"
     fill-opacity="1"
     id="g19"
     transform="translate(-41.718749,-112.19921)">
    <g
       transform="translate(261.42855,214.12499)"
       id="g18">
      <g
         id="g17">
        <path
           d="m 36.96875,0 h 8.21875 v -57.515625 h -8.21875 v 8.21875 H 28.75 v 8.21875 h 8.21875 z M 4.109375,0 h 8.21875 v -41.078125 h 8.203125 v -8.21875 h -8.203125 v -8.21875 H 4.109375 Z M 20.53125,-32.859375 H 28.75 v -8.21875 h -8.21875 z m 0,0"
           id="path16" />
      </g>
    </g>
  </g>
</svg>
