<?xml version="1.0" encoding="UTF-8" standalone="no"?>
<svg
   width="388.75"
   zoomAndPan="magnify"
   viewBox="0 0 291.5625 150.60157"
   height="200.80209"
   preserveAspectRatio="xMidYMid"
   version="1.0"
   id="svg22"
   xmlns="http://www.w3.org/2000/svg"
   xmlns:svg="http://www.w3.org/2000/svg">
  <defs
     id="defs2">
    <clipPath
       id="feed5dc4b1">
      <path
         d="M 41.71875,112.19922 H 333.50391 V 262.80078 H 41.71875 Z m 0,0"
         clip-rule="nonzero"
         id="path1" />
    </clipPath>
    <clipPath
       id="a03c523590">
      <path
         d="m 58.96875,112.19922 h 257.0625 c 4.57422,0 8.96484,1.82031 12.19922,5.05469 3.23437,3.23437 5.05078,7.62109 5.05078,12.19531 v 116.10156 c 0,4.57422 -1.81641,8.96094 -5.05078,12.19531 -3.23438,3.23438 -7.625,5.05469 -12.19922,5.05469 H 58.96875 c -4.574219,0 -8.964844,-1.82031 -12.199219,-5.05469 C 43.535156,254.51172 41.71875,250.125 41.71875,245.55078 V 129.44922 c 0,-4.57422 1.816406,-8.96094 5.050781,-12.19531 3.234375,-3.23438 7.625,-5.05469 12.199219,-5.05469 z m 0,0"
         clip-rule="nonzero"
         id="path2" />
    </clipPath>
  </defs>
  <g
     clip-path="url(#feed5dc4b1)"
     id="g4"
     transform="translate(-41.718749,-112.19921)">
    <g
       clip-path="url(#a03c523590)"
       id="g3">
      <path
         fill="#ff00e4"
         d="M 41.71875,112.19922 H 333.50391 V 262.80078 H 41.71875 Z m 0,0"
         fill-opacity="1"
         fill-rule="nonzero"
         id="path3" />
    </g>
  </g>
  <g
     fill="#ffffff"
     fill-opacity="1"
     id="g7"
     transform="translate(-41.718749,-112.19921)">
    <g
       transform="translate(64.823232,212.62499)"
       id="g6">
      <g
         id="g5">
        <path
           d="M 3.40625,0 H 30.671875 V -6.8125 H 10.21875 v -34.078125 h 20.453125 v -6.8125 H 3.40625 Z m 27.265625,-6.8125 h 6.8125 v -34.078125 h -6.8125 z m 0,0"
           id="path4" />
      </g>
    </g>
  </g>
  <g
     fill="#ffffff"
     fill-opacity="1"
     id="g10"
     transform="translate(-41.718749,-112.19921)">
    <g
       transform="translate(105.70997,212.62499)"
       id="g9">
      <g
         id="g8">
        <path
           d="m 30.671875,-27.265625 h -6.8125 V -13.625 h 6.8125 z m -27.265625,0 h 6.8125 v -20.4375 h -6.8125 z m 6.8125,13.640625 h 6.8125 v -13.640625 h -6.8125 z M 17.03125,0 h 6.828125 V -13.625 H 17.03125 Z m 13.640625,-27.265625 h 6.8125 v -20.4375 h -6.8125 z m 0,0"
           id="path7" />
      </g>
    </g>
  </g>
  <g
     fill="#ffffff"
     fill-opacity="1"
     id="g13"
     transform="translate(-41.718749,-112.19921)">
    <g
       transform="translate(146.59671,212.62499)"
       id="g12">
      <g
         id="g11">
        <path
           d="m 3.40625,-6.8125 h 6.8125 V -40.890625 H 3.40625 Z M 10.21875,0 H 30.671875 V -6.8125 H 10.21875 Z m 0,-40.890625 h 20.453125 v -6.8125 H 10.21875 Z M 30.671875,-6.8125 h 6.8125 v -6.8125 h -6.8125 z m 0,-27.265625 h 6.8125 v -6.8125 h -6.8125 z m 0,0"
           id="path10" />
      </g>
    </g>
  </g>
  <g
     fill="#ffffff"
     fill-opacity="1"
     id="g16"
     transform="translate(-41.718749,-112.19921)">
    <g
       transform="translate(187.48345,212.62499)"
       id="g15">
      <g
         id="g14">
        <path
           d="m 3.40625,0 h 6.8125 v -20.453125 h 20.453125 v -6.8125 H 10.21875 v -13.625 h 20.453125 v -6.8125 H 3.40625 Z m 27.265625,-27.265625 h 6.8125 v -13.625 h -6.8125 z m 0,0"
           id="path13" />
      </g>
    </g>
  </g>
  <g
     fill="#ffffff"
     fill-opacity="1"
     id="g19"
     transform="translate(-41.718749,-112.19921)">
    <g
       transform="translate(228.37019,212.62499)"
       id="g18">
      <g
         id="g17">
        <path
           d="m 3.40625,0 h 6.8125 v -20.453125 h 6.8125 V -13.625 h 6.828125 v -6.828125 h 6.8125 v -6.8125 H 10.21875 v -13.625 h 20.453125 v -6.8125 H 3.40625 Z m 20.453125,-6.8125 h 6.8125 v -6.8125 h -6.8125 z M 30.671875,0 h 6.8125 v -6.8125 h -6.8125 z m 0,-27.265625 h 6.8125 v -13.625 h -6.8125 z m 0,0"
           id="path16" />
      </g>
    </g>
  </g>
  <g
     fill="#ffffff"
     fill-opacity="1"
     id="g22"
     transform="translate(-41.718749,-112.19921)">
    <g
       transform="translate(269.25693,212.62499)"
       id="g21">
      <g
         id="g20">
        <path
           d="M 30.671875,-6.8125 H 10.21875 V 0 h 20.453125 z m -27.265625,0 h 6.8125 v -34.078125 h -6.8125 z m 6.8125,-34.078125 h 20.453125 v -6.8125 H 10.21875 Z M 30.671875,-6.8125 h 6.8125 v -34.078125 h -6.8125 z m 0,0"
           id="path19" />
      </g>
    </g>
  </g>
</svg>
