<svg xmlns="http://www.w3.org/2000/svg" width="2147" height="2147" viewBox="0 0 2147 2147">
  <defs>
    <style>
      .cls-1 {
        fill: #f7941d;
      }

      .cls-2 {
        fill: #fff;
        fill-rule: evenodd;
      }
    </style>
  </defs>
  <circle class="cls-1" cx="1073.5" cy="1073.5" r="1073.5"/>
  <path id="q" class="cls-2" d="M1538.58,772.061q-91.62-133.026-250.64-196.679L1179.03,750.605q257.55,125.886,257.57,349.735,0,174.51-133.97,272.49l-86.43-56.5-28.52,253.89,308.55-68.66-95.93-62.22q108.9-65.79,169.4-172.36,57.045-102.27,57.04-217.42,0-150.195-88.16-277.5h0ZM708.851,1045.27q0-174.5,133.967-272.493l86.431,56.5,28.522-253.9L649.214,643.326l95.938,62.937Q637.1,772.073,576.612,878.626,518.7,980.91,518.7,1096.04q0,150.2,89.024,277.5,91.6,133.035,249.784,196.68L966.414,1395q-257.569-125.88-257.563-349.73h0Z"/>
</svg>
