<svg xmlns="http://www.w3.org/2000/svg" width="1990" height="1990" viewBox="0 0 1990 1990">
  <defs>
    <style>
      .cls-1 {
        fill: #999;
      }

      .cls-2 {
        fill: #fff;
        fill-rule: evenodd;
      }
    </style>
  </defs>
  <circle class="cls-1" cx="995" cy="995" r="995"/>
  <path id="y" class="cls-2" d="M1845.9,994.813q0-352.06-249.24-601.307Q1347.405,144.26,995.35,144.26q-353.106,0-601.826,248.727T144.8,994.813q0,352.06,249.246,601.307T995.35,1845.37q352.065,0,601.31-249.25T1845.9,994.813h0ZM282.921,939.771Q302.637,675.993,489.588,489.05,699.354,280.307,995.35,280.307q295.98,0,504.72,208.743,186.945,186.936,207.71,450.721H282.921ZM1500.07,1499.54q-208.74,209.76-504.72,209.78-295.98,0-505.762-209.78-174.473-175.5-203.551-420.61H1704.66q-29.085,246.135-204.59,420.61h0Z"/>
</svg>
