<svg xmlns="http://www.w3.org/2000/svg" width="1990" height="1990" viewBox="0 0 1990 1990">
  <defs>
    <style>
      .cls-1 {
        fill: #00bff3;
      }

      .cls-2 {
        fill: #fff;
        fill-rule: evenodd;
      }
    </style>
  </defs>
  <circle class="cls-1" cx="995" cy="995" r="995"/>
  <path id="_" data-name="•••" class="cls-2" d="M686.815,1114.03c67.852,0,120.754-52.91,120.754-120.759,0-66.7-54.052-119.6-120.754-119.6s-121.9,52.9-120.754,120.754C566.061,1062.27,620.113,1114.03,686.815,1114.03Zm324.3,0c67.85,0,120.75-52.91,120.75-120.759,0-66.7-54.05-119.6-120.75-119.6s-121.9,52.9-120.755,120.754C890.365,1062.27,944.417,1114.03,1011.12,1114.03Zm324.3,0c67.86,0,120.76-52.91,120.76-120.759,0-66.7-54.06-119.6-120.76-119.6s-121.9,52.9-120.75,120.754C1214.67,1062.27,1268.72,1114.03,1335.42,1114.03Z"/>
</svg>
