<?xml version="1.0" encoding="UTF-8" standalone="no"?>
<svg
   width="388.75"
   zoomAndPan="magnify"
   viewBox="0 0 291.5625 150.60154"
   height="200.80206"
   preserveAspectRatio="xMidYMid"
   version="1.0"
   id="svg13"
   xmlns="http://www.w3.org/2000/svg"
   xmlns:svg="http://www.w3.org/2000/svg">
  <defs
     id="defs2">
    <clipPath
       id="b939128199">
      <path
         d="M 41.71875,112.19922 H 333.50391 V 262.80078 H 41.71875 Z m 0,0"
         clip-rule="nonzero"
         id="path1" />
    </clipPath>
    <clipPath
       id="9db35da5f6">
      <path
         d="m 58.96875,112.19922 h 257.0625 c 4.57422,0 8.96484,1.82031 12.19922,5.05469 3.23437,3.23437 5.05078,7.62109 5.05078,12.19531 v 116.10156 c 0,4.57422 -1.81641,8.96094 -5.05078,12.19531 -3.23438,3.23438 -7.625,5.05469 -12.19922,5.05469 H 58.96875 c -4.574219,0 -8.964844,-1.82031 -12.199219,-5.05469 C 43.535156,254.51172 41.71875,250.125 41.71875,245.55078 V 129.44922 c 0,-4.57422 1.816406,-8.96094 5.050781,-12.19531 3.234375,-3.23438 7.625,-5.05469 12.199219,-5.05469 z m 0,0"
         clip-rule="nonzero"
         id="path2" />
    </clipPath>
  </defs>
  <g
     clip-path="url(#b939128199)"
     id="g4"
     transform="translate(-41.718749,-112.19922)">
    <g
       clip-path="url(#9db35da5f6)"
       id="g3">
      <path
         fill="#ff00e4"
         d="M 41.71875,112.19922 H 333.50391 V 262.80078 H 41.71875 Z m 0,0"
         fill-opacity="1"
         fill-rule="nonzero"
         id="path3" />
    </g>
  </g>
  <g
     fill="#ffffff"
     fill-opacity="1"
     id="g7"
     transform="translate(-41.718749,-112.19922)">
    <g
       transform="translate(104.54997,218.8965)"
       id="g6">
      <g
         id="g5">
        <path
           d="m 4.609375,0 h 9.21875 V -27.640625 H 41.46875 V 0 h 9.21875 v -64.515625 h -9.21875 v 27.65625 H 13.828125 v -27.65625 h -9.21875 z m 0,0"
           id="path4" />
      </g>
    </g>
  </g>
  <g
     fill="#ffffff"
     fill-opacity="1"
     id="g10"
     transform="translate(-41.718749,-112.19922)">
    <g
       transform="translate(159.83745,218.8965)"
       id="g9">
      <g
         id="g8">
        <path
           d="M 4.609375,0 H 41.46875 V -9.21875 H 13.828125 V -55.296875 H 41.46875 v -9.21875 H 4.609375 Z M 41.46875,-9.21875 h 9.21875 v -46.078125 h -9.21875 z m 0,0"
           id="path7" />
      </g>
    </g>
  </g>
  <g
     fill="#ffffff"
     fill-opacity="1"
     id="g13"
     transform="translate(-41.718749,-112.19922)">
    <g
       transform="translate(215.12492,218.8965)"
       id="g12">
      <g
         id="g11">
        <path
           d="M 41.46875,-36.859375 H 32.25 V -18.4375 h 9.21875 z m -36.859375,0 h 9.21875 v -27.65625 h -9.21875 z m 9.21875,18.421875 H 23.03125 V -36.859375 H 13.828125 Z M 23.03125,0 H 32.25 v -18.4375 h -9.21875 z m 18.4375,-36.859375 h 9.21875 v -27.65625 h -9.21875 z m 0,0"
           id="path10" />
      </g>
    </g>
  </g>
</svg>
