<?xml version="1.0" encoding="UTF-8" standalone="no"?>
<svg
   xmlns:dc="http://purl.org/dc/elements/1.1/"
   xmlns:cc="http://creativecommons.org/ns#"
   xmlns:rdf="http://www.w3.org/1999/02/22-rdf-syntax-ns#"
   xmlns:svg="http://www.w3.org/2000/svg"
   xmlns="http://www.w3.org/2000/svg"
   width="400"
   height="165"
   viewBox="0 0 105.83333 43.656251"
   version="1.1"
   id="svg1327">
  <defs
     id="defs1321" />
  <metadata
     id="metadata1324">
    <rdf:RDF>
      <cc:Work
         rdf:about="">
        <dc:format>image/svg+xml</dc:format>
        <dc:type
           rdf:resource="http://purl.org/dc/dcmitype/StillImage" />
        <dc:title></dc:title>
      </cc:Work>
    </rdf:RDF>
  </metadata>
  <g
     id="layer1"
     transform="translate(0,-253.34373)">
    <g
       aria-label="TRANSFER"
       style="font-style:normal;font-variant:normal;font-weight:normal;font-stretch:normal;font-size:13.28642273px;line-height:1.25;font-family:'VCR OSD Mono';-inkscape-font-specification:'VCR OSD Mono, Normal';font-variant-ligatures:normal;font-variant-caps:normal;font-variant-numeric:normal;font-feature-settings:normal;text-align:start;letter-spacing:0px;word-spacing:0px;writing-mode:lr-tb;text-anchor:start;fill:#f9f9f9;fill-opacity:1;stroke:none;stroke-width:0.33216056;stroke-opacity:1"
       id="text817-8-4-4-0">
      <g
         aria-label="MERGE"
         id="text861"
         style="font-size:50.8px;line-height:1.25;font-family:'Wingdings 2';-inkscape-font-specification:'Wingdings 2, ';stroke-width:0.0878842">
        <path
           d="m 35.284055,281.10697 h -1.378037 v -9.64626 h 1.378037 v 1.37804 h 0.689018 v 0.68902 h 0.689019 v 0.68902 h 1.378037 v -0.68902 h 0.689019 v -0.68902 h 0.689018 v -1.37804 h 1.378037 v 9.64626 h -1.378037 v -6.20117 h -0.689018 v 0.68902 h -0.689019 v 1.37804 h -1.378037 v -1.37804 h -0.689019 v -0.68902 h -0.689018 z"
           style="font-style:normal;font-variant:normal;font-weight:normal;font-stretch:normal;font-size:14.1111px;font-family:'VCR OSD Mono';-inkscape-font-specification:'VCR OSD Mono, Normal';font-variant-ligatures:normal;font-variant-caps:normal;font-variant-numeric:normal;font-variant-east-asian:normal;stroke-width:0.0878842"
           id="path871" />
        <path
           d="m 49.064426,271.46071 v 1.37804 h -5.512148 v 2.75607 h 4.134111 v 1.37804 h -4.134111 v 2.75607 h 5.512148 v 1.37804 H 42.17424 v -9.64626 z"
           style="font-style:normal;font-variant:normal;font-weight:normal;font-stretch:normal;font-size:14.1111px;font-family:'VCR OSD Mono';-inkscape-font-specification:'VCR OSD Mono, Normal';font-variant-ligatures:normal;font-variant-caps:normal;font-variant-numeric:normal;font-variant-east-asian:normal;stroke-width:0.0878842"
           id="path873" />
        <path
           d="m 51.8205,272.83875 v 2.75607 h 3.445093 v -0.68902 h 0.689019 v -1.37803 h -0.689019 v -0.68902 z m 0.689019,4.13411 H 51.8205 v 4.13411 h -1.378037 v -9.64626 h 5.512149 v 0.68902 h 0.689018 v 0.68902 h 0.689019 v 2.75607 H 56.64363 v 0.68902 h -0.689018 v 0.68902 h -1.378037 v 0.68902 h 0.689018 v 0.68902 h 0.689019 v 0.68902 h 0.689018 v 0.68901 h 0.689019 v 1.37804 h -1.378037 v -0.68902 h -0.689019 v -0.68902 h -0.689018 v -0.68901 h -0.689019 v -0.68902 h -0.689019 v -0.68902 h -0.689018 z"
           style="font-style:normal;font-variant:normal;font-weight:normal;font-stretch:normal;font-size:14.1111px;font-family:'VCR OSD Mono';-inkscape-font-specification:'VCR OSD Mono, Normal';font-variant-ligatures:normal;font-variant-caps:normal;font-variant-numeric:normal;font-variant-east-asian:normal;stroke-width:0.0878842"
           id="path875" />
        <path
           d="m 64.911853,272.83875 h 0.689019 v 1.37804 h -1.378037 v -0.68902 h -0.689019 v -0.68902 h -2.756074 v 0.68902 h -0.689019 v 5.51215 h 0.689019 v 0.68901 h 2.756074 v -0.68901 h 0.689019 v -2.06706 h -2.067056 v -1.37804 h 3.445093 v 4.13411 h -0.689019 v 0.68902 h -0.689018 v 0.68902 h -4.134112 v -0.68902 h -0.689018 v -0.68902 h -0.689019 v -6.89018 h 0.689019 v -0.68902 h 0.689018 v -0.68902 h 4.134112 v 0.68902 h 0.689018 z"
           style="font-style:normal;font-variant:normal;font-weight:normal;font-stretch:normal;font-size:14.1111px;font-family:'VCR OSD Mono';-inkscape-font-specification:'VCR OSD Mono, Normal';font-variant-ligatures:normal;font-variant-caps:normal;font-variant-numeric:normal;font-variant-east-asian:normal;stroke-width:0.0878842"
           id="path877" />
        <path
           d="m 73.869094,271.46071 v 1.37804 h -5.512148 v 2.75607 h 4.134111 v 1.37804 h -4.134111 v 2.75607 h 5.512148 v 1.37804 h -6.890185 v -9.64626 z"
           style="font-style:normal;font-variant:normal;font-weight:normal;font-stretch:normal;font-size:14.1111px;font-family:'VCR OSD Mono';-inkscape-font-specification:'VCR OSD Mono, Normal';font-variant-ligatures:normal;font-variant-caps:normal;font-variant-numeric:normal;font-variant-east-asian:normal;stroke-width:0.0878842"
           id="path879" />
      </g>
    </g>
    <path
       transform="matrix(1,0,-0.25881905,0.96592583,0,0)"
       style="opacity:1;fill:none;fill-opacity:1;fill-rule:nonzero;stroke:#ffffff;stroke-width:2.55472231;stroke-linecap:round;stroke-linejoin:round;stroke-miterlimit:4;stroke-dasharray:none;stroke-opacity:1;paint-order:markers fill stroke"
       d="m 79.124252,264.37158 h 89.019038 v 34.3878 H 79.124252 Z"
       id="rect868-8-0-0" />
    <path
       transform="matrix(1,0,-0.25881905,0.96592583,0,0)"
       style="opacity:1;fill:none;fill-opacity:1;fill-rule:nonzero;stroke:#ffffff;stroke-width:2.55472231;stroke-linecap:round;stroke-linejoin:round;stroke-miterlimit:4;stroke-dasharray:none;stroke-opacity:1;paint-order:markers fill stroke"
       d="m 85.767471,270.9053 h 89.019039 v 34.38781 H 85.767471 Z"
       id="rect868-7-5-8-3" />
  </g>
</svg>
