<?xml version="1.0" encoding="UTF-8" standalone="no"?>
<!-- Created with Inkscape (http://www.inkscape.org/) -->

<svg
   xmlns:dc="http://purl.org/dc/elements/1.1/"
   xmlns:cc="http://creativecommons.org/ns#"
   xmlns:rdf="http://www.w3.org/1999/02/22-rdf-syntax-ns#"
   xmlns:svg="http://www.w3.org/2000/svg"
   xmlns="http://www.w3.org/2000/svg"
   xmlns:sodipodi="http://sodipodi.sourceforge.net/DTD/sodipodi-0.dtd"
   xmlns:inkscape="http://www.inkscape.org/namespaces/inkscape"
   width="400"
   height="165"
   viewBox="0 0 105.83333 43.656251"
   version="1.1"
   id="svg1327"
   inkscape:version="0.92.3 (2405546, 2018-03-11)"
   sodipodi:docname="settings.svg">
  <defs
     id="defs1321" />
  <sodipodi:namedview
     id="base"
     pagecolor="#ffffff"
     bordercolor="#666666"
     borderopacity="1.0"
     inkscape:pageopacity="0.0"
     inkscape:pageshadow="2"
     inkscape:zoom="8.5148954"
     inkscape:cx="158.97737"
     inkscape:cy="137.67623"
     inkscape:document-units="mm"
     inkscape:current-layer="layer1"
     showgrid="false"
     units="px"
     inkscape:pagecheckerboard="true"
     showguides="true"
     inkscape:guide-bbox="true"
     inkscape:window-width="1920"
     inkscape:window-height="1052"
     inkscape:window-x="0"
     inkscape:window-y="244"
     inkscape:window-maximized="1">
    <sodipodi:guide
       position="-2.7037149,20.87268"
       orientation="0,1"
       id="guide1898"
       inkscape:locked="false" />
  </sodipodi:namedview>
  <metadata
     id="metadata1324">
    <rdf:RDF>
      <cc:Work
         rdf:about="">
        <dc:format>image/svg+xml</dc:format>
        <dc:type
           rdf:resource="http://purl.org/dc/dcmitype/StillImage" />
        <dc:title />
      </cc:Work>
    </rdf:RDF>
  </metadata>
  <g
     inkscape:label="Layer 1"
     inkscape:groupmode="layer"
     id="layer1"
     transform="translate(0,-253.34373)">
    <g
       aria-label="SETTINGS"
       style="font-style:normal;font-variant:normal;font-weight:normal;font-stretch:normal;font-size:13.28642273px;line-height:1.25;font-family:'VCR OSD Mono';-inkscape-font-specification:'VCR OSD Mono, Normal';font-variant-ligatures:normal;font-variant-caps:normal;font-variant-numeric:normal;font-feature-settings:normal;text-align:start;letter-spacing:0px;word-spacing:0px;writing-mode:lr-tb;text-anchor:start;fill:#f9f9f9;fill-opacity:1;stroke:none;stroke-width:0.33216056;stroke-opacity:1"
       id="text817-8-4-4-0">
      <path
         d="m 27.692654,272.20662 h 0.648751 v 1.2975 h -1.297502 v -0.64875 h -0.648751 v -0.64875 h -2.595005 v 0.64875 h -0.648751 v 1.2975 h 0.648751 v 0.64875 h 3.243756 v 0.64875 h 0.648751 v 0.64875 h 0.648751 v 2.59501 h -0.648751 v 0.64875 h -0.648751 v 0.64875 h -3.892507 v -0.64875 h -0.648751 v -0.64875 h -0.648751 v -1.2975 h 1.297502 v 0.64875 h 0.648751 v 0.64875 h 2.595005 v -0.64875 h 0.648751 v -1.29751 h -0.648751 v -0.64875 h -3.243756 v -0.64875 h -0.648751 v -0.64875 h -0.648751 v -2.595 h 0.648751 v -0.64875 h 0.648751 v -0.64876 h 3.892507 v 0.64876 h 0.648751 z"
         style="font-style:normal;font-variant:normal;font-weight:normal;font-stretch:normal;font-size:13.28642273px;font-family:'VCR OSD Mono';-inkscape-font-specification:'VCR OSD Mono, Normal';font-variant-ligatures:normal;font-variant-caps:normal;font-variant-numeric:normal;font-feature-settings:normal;text-align:start;writing-mode:lr-tb;text-anchor:start;fill:#f9f9f9;fill-opacity:1;stroke:none;stroke-width:0.33216056;stroke-opacity:1"
         id="path5434" />
      <path
         d="m 36.126418,270.90911 v 1.29751 H 30.93641 v 2.595 h 3.892506 v 1.2975 H 30.93641 v 2.59501 h 5.190008 v 1.2975 h -6.487511 v -9.08252 z"
         style="font-style:normal;font-variant:normal;font-weight:normal;font-stretch:normal;font-size:13.28642273px;font-family:'VCR OSD Mono';-inkscape-font-specification:'VCR OSD Mono, Normal';font-variant-ligatures:normal;font-variant-caps:normal;font-variant-numeric:normal;font-feature-settings:normal;text-align:start;writing-mode:lr-tb;text-anchor:start;fill:#f9f9f9;fill-opacity:1;stroke:none;stroke-width:0.33216056;stroke-opacity:1"
         id="path5436" />
      <path
         d="M 40.018925,272.20662 H 37.42392 v -1.29751 h 6.487512 v 1.29751 h -2.595005 v 7.78501 h -1.297502 z"
         style="font-style:normal;font-variant:normal;font-weight:normal;font-stretch:normal;font-size:13.28642273px;font-family:'VCR OSD Mono';-inkscape-font-specification:'VCR OSD Mono, Normal';font-variant-ligatures:normal;font-variant-caps:normal;font-variant-numeric:normal;font-feature-settings:normal;text-align:start;writing-mode:lr-tb;text-anchor:start;fill:#f9f9f9;fill-opacity:1;stroke:none;stroke-width:0.33216056;stroke-opacity:1"
         id="path5438" />
      <path
         d="m 47.803938,272.20662 h -2.595004 v -1.29751 h 6.487511 v 1.29751 H 49.10144 v 7.78501 h -1.297502 z"
         style="font-style:normal;font-variant:normal;font-weight:normal;font-stretch:normal;font-size:13.28642273px;font-family:'VCR OSD Mono';-inkscape-font-specification:'VCR OSD Mono, Normal';font-variant-ligatures:normal;font-variant-caps:normal;font-variant-numeric:normal;font-feature-settings:normal;text-align:start;writing-mode:lr-tb;text-anchor:start;fill:#f9f9f9;fill-opacity:1;stroke:none;stroke-width:0.33216056;stroke-opacity:1"
         id="path5440" />
      <path
         d="m 54.291449,279.99163 v -1.2975 h 1.297502 v -6.48751 h -1.297502 v -1.29751 h 3.892507 v 1.29751 h -1.297502 v 6.48751 h 1.297502 v 1.2975 z"
         style="font-style:normal;font-variant:normal;font-weight:normal;font-stretch:normal;font-size:13.28642273px;font-family:'VCR OSD Mono';-inkscape-font-specification:'VCR OSD Mono, Normal';font-variant-ligatures:normal;font-variant-caps:normal;font-variant-numeric:normal;font-feature-settings:normal;text-align:start;writing-mode:lr-tb;text-anchor:start;fill:#f9f9f9;fill-opacity:1;stroke:none;stroke-width:0.33216056;stroke-opacity:1"
         id="path5442" />
      <path
         d="m 62.07646,274.80162 v 5.19001 h -1.297502 v -9.08252 h 1.297502 v 1.94626 h 0.648752 v 0.64875 h 0.648751 v 0.64875 h 0.648751 v 0.64875 h 0.648751 v 0.64875 h 0.648751 v 0.64875 h 0.648751 v -5.19001 h 1.297502 v 9.08252 h -1.297502 v -1.94625 h -0.648751 v -0.64875 h -0.648751 v -0.64876 h -0.648751 v -0.64875 h -0.648751 v -0.64875 h -0.648751 v -0.64875 z"
         style="font-style:normal;font-variant:normal;font-weight:normal;font-stretch:normal;font-size:13.28642273px;font-family:'VCR OSD Mono';-inkscape-font-specification:'VCR OSD Mono, Normal';font-variant-ligatures:normal;font-variant-caps:normal;font-variant-numeric:normal;font-feature-settings:normal;text-align:start;writing-mode:lr-tb;text-anchor:start;fill:#f9f9f9;fill-opacity:1;stroke:none;stroke-width:0.33216056;stroke-opacity:1"
         id="path5444" />
      <path
         d="m 74.402733,272.20662 h 0.648751 v 1.2975 h -1.297502 v -0.64875 h -0.648751 v -0.64875 h -2.595004 v 0.64875 h -0.648752 v 5.19001 h 0.648752 v 0.64875 h 2.595004 v -0.64875 h 0.648751 v -1.94626 h -1.946253 v -1.2975 h 3.243755 v 3.89251 h -0.648751 v 0.64875 h -0.648751 v 0.64875 h -3.892507 v -0.64875 h -0.648751 v -0.64875 h -0.648751 v -6.48751 h 0.648751 v -0.64875 h 0.648751 v -0.64876 h 3.892507 v 0.64876 h 0.648751 z"
         style="font-style:normal;font-variant:normal;font-weight:normal;font-stretch:normal;font-size:13.28642273px;font-family:'VCR OSD Mono';-inkscape-font-specification:'VCR OSD Mono, Normal';font-variant-ligatures:normal;font-variant-caps:normal;font-variant-numeric:normal;font-feature-settings:normal;text-align:start;writing-mode:lr-tb;text-anchor:start;fill:#f9f9f9;fill-opacity:1;stroke:none;stroke-width:0.33216056;stroke-opacity:1"
         id="path5446" />
      <path
         d="m 82.187748,272.20662 h 0.648751 v 1.2975 h -1.297502 v -0.64875 h -0.648751 v -0.64875 h -2.595004 v 0.64875 h -0.648751 v 1.2975 h 0.648751 v 0.64875 h 3.243755 v 0.64875 h 0.648751 v 0.64875 h 0.648751 v 2.59501 h -0.648751 v 0.64875 h -0.648751 v 0.64875 h -3.892506 v -0.64875 h -0.648752 v -0.64875 h -0.648751 v -1.2975 h 1.297503 v 0.64875 h 0.648751 v 0.64875 h 2.595004 v -0.64875 h 0.648751 v -1.29751 h -0.648751 v -0.64875 h -3.243755 v -0.64875 h -0.648752 v -0.64875 h -0.648751 v -2.595 h 0.648751 v -0.64875 h 0.648752 v -0.64876 h 3.892506 v 0.64876 h 0.648751 z"
         style="font-style:normal;font-variant:normal;font-weight:normal;font-stretch:normal;font-size:13.28642273px;font-family:'VCR OSD Mono';-inkscape-font-specification:'VCR OSD Mono, Normal';font-variant-ligatures:normal;font-variant-caps:normal;font-variant-numeric:normal;font-feature-settings:normal;text-align:start;writing-mode:lr-tb;text-anchor:start;fill:#f9f9f9;fill-opacity:1;stroke:none;stroke-width:0.33216056;stroke-opacity:1"
         id="path5448" />
    </g>
    <path
       transform="matrix(1,0,-0.25881905,0.96592583,0,0)"
       style="opacity:1;fill:none;fill-opacity:1;fill-rule:nonzero;stroke:#ffffff;stroke-width:2.55472231;stroke-linecap:round;stroke-linejoin:round;stroke-miterlimit:4;stroke-dasharray:none;stroke-opacity:1;paint-order:markers fill stroke"
       d="m 79.124252,264.37158 h 89.019038 v 34.3878 H 79.124252 Z"
       id="rect868-8-0-0" />
    <path
       transform="matrix(1,0,-0.25881905,0.96592583,0,0)"
       style="opacity:1;fill:none;fill-opacity:1;fill-rule:nonzero;stroke:#ffffff;stroke-width:2.55472231;stroke-linecap:round;stroke-linejoin:round;stroke-miterlimit:4;stroke-dasharray:none;stroke-opacity:1;paint-order:markers fill stroke"
       d="m 85.767471,270.9053 h 89.019039 v 34.38781 H 85.767471 Z"
       id="rect868-7-5-8-3" />
  </g>
</svg>
