<svg id="recording-marker-stop_start-graph" data-name="recording-marker-stop+start-graph" xmlns="http://www.w3.org/2000/svg" width="646" height="1496" viewBox="0 0 646 1496">
  <defs>
    <style>
      .cls-1, .cls-4 {
        fill: #3cc537;
      }

      .cls-1, .cls-2 {
        fill-rule: evenodd;
      }

      .cls-2, .cls-3 {
        fill: #c83737;
      }
    </style>
  </defs>
  <path class="cls-1" d="M6756,44h504a70,70,0,0,1,70,70v916.4a70,70,0,0,1-70,70H6756a70,70,0,0,1-70-70V114A70,70,0,0,1,6756,44Z" transform="translate(-6685 -44)"/>
  <path id="Triangle_1" data-name="Triangle 1" class="cls-1" d="M7069.72,1503.96c-26.92,46.77-94.41,46.77-121.34,0l-251.27-436.52c-26.86-46.67,6.83-104.924,60.67-104.924h502.54c53.85,0,87.53,58.254,60.67,104.924Z" transform="translate(-6685 -44)"/>
  <path class="cls-2" d="M6755,44h183a70,70,0,0,1,70,70v915.99a70,70,0,0,1-70,70H6755a70,70,0,0,1-70-70V114A70,70,0,0,1,6755,44Z" transform="translate(-6685 -44)"/>
  <rect class="cls-3" x="234" y="1" width="89" height="1055"/>
  <path id="Triangle_1-2" data-name="Triangle 1" class="cls-2" d="M7069.72,1503.96a70.006,70.006,0,0,1-121.34,0l-251.27-436.52c-26.86-46.67,6.83-104.924,60.67-104.924h502.54c53.85,0,87.53,58.254,60.67,104.924,0,0-69.05,119.96-134.76,234.11C7126.6,1405.15,7069.72,1503.96,7069.72,1503.96ZM7719,1055m-711-92,1,577,16-3h5l6-3,5-2,9-6,10-9,9-10,10-18,4-7,15-27,8-14,11-19,28-47,36-63,16-28,17-30,21-36,25-45,22-37,6-11,5-9,24-41,4-7,7-15,1-9,1-3v-2l1-4-1-12-1-6-1-4-8-17-6-9-8-8-13-8-13-6-10-2" transform="translate(-6685 -44)"/>
  <rect class="cls-4" x="326" y="679" width="320" height="313"/>
</svg>
