<?xml version="1.0" encoding="utf-8"?>
<!-- Generator: Adobe Illustrator 25.2.0, SVG Export Plug-In . SVG Version: 6.00 Build 0)  -->
<svg version="1.1" id="recording-marker-stop_start-graph"
	 xmlns="http://www.w3.org/2000/svg" xmlns:xlink="http://www.w3.org/1999/xlink" x="0px" y="0px" viewBox="0 0 646 1496"
	 style="enable-background:new 0 0 646 1496;" xml:space="preserve">
<style type="text/css">
	.st0{fill-rule:evenodd;clip-rule:evenodd;fill:#3CC537;}
	.st1{fill-rule:evenodd;clip-rule:evenodd;fill:#C83737;}
	.st2{fill:#C83737;}
	.st3{fill:#3CC537;}
</style>
<path class="st0" d="M45.7,0h324.8c24.9,0,45.1,31.3,45.1,70l0,0v916.4c0,38.7-20.2,70-45.1,70H45.7c-24.9,0-45.1-31.3-45.1-70V70
	C0.6,31.3,20.8,0,45.7,0z"/>
<path id="Triangle_1" class="st0" d="M247.9,1460c-17.3,46.8-60.8,46.8-78.2,0L7.8,1023.4c-17.3-46.7,4.4-104.9,39.1-104.9h323.8
	c34.7,0,56.4,58.3,39.1,104.9L247.9,1460z"/>
<path class="st1" d="M45.1,0H163c24.9,0,45.1,31.3,45.1,70l0,0v916c0,38.7-20.2,70-45.1,70H45.1C20.2,1056,0,1024.6,0,986V70
	C0,31.3,20.2,0,45.1,0z"/>
<rect x="150.8" y="1" class="st2" width="57.3" height="1055"/>
<path id="Triangle_1-2" class="st1" d="M247.9,1460c-12.4,33.5-40,45-61.6,25.7c-6.9-6.2-12.6-15-16.6-25.7L7.8,1023.4
	c-17.3-46.7,4.4-104.9,39.1-104.9h323.8c34.7,0,56.4,58.3,39.1,104.9c0,0-44.5,120-86.8,234.1C284.5,1361.2,247.9,1460,247.9,1460z
	 M208.1,919l0.6,577l10.3-3h3.2l3.9-3l3.2-2l5.8-6l6.4-9l5.8-10l6.4-18l2.6-7l9.7-27l5.2-14l7.1-19l18-47l23.2-63l10.3-28l11-30
	l13.5-36l16.1-45l14.2-37l3.9-11l3.2-9l15.5-41l2.6-7l4.5-15l0.6-9l0.6-3v-2l0.6-4l-0.6-12l-0.6-6l-0.6-4l-5.2-17l-3.9-9l-5.2-8
	l-8.4-8l-8.4-6l-6.4-2"/>
<rect x="210.1" y="679" class="st3" width="206.2" height="313"/>
</svg>
