<?xml version="1.0" encoding="utf-8"?>
<!-- Generator: Adobe Illustrator 25.2.0, SVG Export Plug-In . SVG Version: 6.00 Build 0)  -->
<svg version="1.1" id="recording-marker-stop-graph"
	 xmlns="http://www.w3.org/2000/svg" xmlns:xlink="http://www.w3.org/1999/xlink" x="0px" y="0px" viewBox="0 0 597.6 1504.6"
	 style="enable-background:new 0 0 597.6 1504.6;" xml:space="preserve">
<style type="text/css">
	.st0{fill-rule:evenodd;clip-rule:evenodd;fill:#3CC537;}
</style>
<path class="st0" d="M48.5,0h312.1c26.4,0,47.8,31.3,47.8,70l0,0v916.4c0,38.7-21.4,70-47.8,70l0,0H48.5c-26.4,0-47.8-31.3-47.8-70
	l0,0V70C0.6,31.3,22.1,0,48.5,0z"/>
<path id="Triangle_1" class="st0" d="M246.2,1467.5c-18,49.4-66.4,49.4-84.4,0L5.7,1039.4c-17-46.6,6.1-102.9,42.2-102.9H360
	c36.1,0,59.2,56.3,42.2,102.9L246.2,1467.5z"/>
</svg>
