<svg id="recording-marker-start_stop-table" data-name="recording-marker-start+stop-table" xmlns="http://www.w3.org/2000/svg" width="594" height="362.438" viewBox="0 0 594 362.438">
  <defs>
    <style>
      .cls-1 {
        fill: #c83737;
        stroke: #000;
        stroke-width: 29px;
      }

      .cls-1, .cls-2, .cls-3 {
        fill-rule: evenodd;
      }

      .cls-2, .cls-4 {
        fill: #3cc537;
      }
    </style>
  </defs>
  <path id="Rounded_Rectangle_2" data-name="Rounded Rectangle 2" class="cls-1" d="M2581,48.3h471a47,47,0,0,1,47,47v239.41a47,47,0,0,1-47,47H2581a47,47,0,0,1-47-47V95.3A47,47,0,0,1,2581,48.3Z" transform="translate(-2519.5 -33.781)"/>
  <path id="Rounded_Rectangle_2-2" data-name="Rounded Rectangle 2" class="cls-2" d="M2838,77.011h214a20,20,0,0,1,20,20V331.989a20,20,0,0,1-20,20H2838a20,20,0,0,1-20-20V97.011A20,20,0,0,1,2838,77.011Z" transform="translate(-2519.5 -33.781)"/>
  <path id="Triangle_1" data-name="Triangle 1" class="cls-3" d="M3008.93,202.875a15,15,0,0,1,0,25.937l-96.96,56.361a15,15,0,0,1-22.54-12.968V159.482a15,15,0,0,1,22.54-12.968Z" transform="translate(-2519.5 -33.781)"/>
  <path id="Rounded_Rectangle_3" data-name="Rounded Rectangle 3" class="cls-3" d="M2637,142.7h103.84a20,20,0,0,1,20,20V266.545a20,20,0,0,1-20,20H2637a20,20,0,0,1-20-20V162.7A20,20,0,0,1,2637,142.7Z" transform="translate(-2519.5 -33.781)"/>
  <rect class="cls-4" x="297.5" y="43.219" width="44" height="275"/>
</svg>
