<svg id="recording-marker-stop-graph" xmlns="http://www.w3.org/2000/svg" width="597.62" height="1504.59" viewBox="0 0 597.62 1504.59">
  <defs>
    <style>
      .cls-1 {
        fill: #c83737;
        fill-rule: evenodd;
      }
    </style>
  </defs>
  <path class="cls-1" d="M5748.32,44H6205a70,70,0,0,1,70,70v916.38a70,70,0,0,1-70,70H5748.32a70,70,0,0,1-70-70V114A70,70,0,0,1,5748.32,44Z" transform="translate(-5677.38 -44)"/>
  <path id="Triangle_1" data-name="Triangle 1" class="cls-1" d="M6037.54,1511.51c-26.35,49.41-97.17,49.41-123.52,0l-228.31-428.07c-24.87-46.63,8.92-102.944,61.76-102.944h456.62c52.84,0,86.63,56.314,61.76,102.944Z" transform="translate(-5677.38 -44)"/>
</svg>
