<svg id="recording-marker-stop-table" xmlns="http://www.w3.org/2000/svg" width="594" height="362.438" viewBox="0 0 594 362.438">
  <defs>
    <style>
      .cls-1 {
        fill: #c83737;
        stroke: #000;
        stroke-width: 29px;
      }

      .cls-1, .cls-2 {
        fill-rule: evenodd;
      }
    </style>
  </defs>
  <path id="Rounded_Rectangle_2" data-name="Rounded Rectangle 2" class="cls-1" d="M412,607.295H883a47,47,0,0,1,47,47v239.41a47,47,0,0,1-47,47H412a47,47,0,0,1-47-47V654.295A47,47,0,0,1,412,607.295Z" transform="translate(-350.5 -592.781)"/>
  <path id="Rounded_Rectangle_3" data-name="Rounded Rectangle 3" class="cls-2" d="M590,696.783H705.173a20,20,0,0,1,20,20V831.957a20,20,0,0,1-20,20H590a20,20,0,0,1-20-20V716.783A20,20,0,0,1,590,696.783Z" transform="translate(-350.5 -592.781)"/>
</svg>
