<svg xmlns="http://www.w3.org/2000/svg" width="594" height="362.44" viewBox="0 0 594 362.44">
  <defs>
    <style>
      .cls-1 {
        fill: #3cc537;
        stroke: #000;
        stroke-width: 29px;
      }

      .cls-1, .cls-2 {
        fill-rule: evenodd;
      }
    </style>
  </defs>
  <path id="Rounded_Rectangle_2" data-name="Rounded Rectangle 2" class="cls-1" d="M1146,1565.3h471a47,47,0,0,1,47,47v239.4a47,47,0,0,1-47,47H1146a47,47,0,0,1-47-47V1612.3A47,47,0,0,1,1146,1565.3Z" transform="translate(-1084.5 -1550.78)"/>
  <path id="Triangle_1" data-name="Triangle 1" class="cls-2" d="M1454.59,1719.02a15,15,0,0,1,0,25.96l-119.07,68.98a15,15,0,0,1-22.52-12.98V1663.02a15,15,0,0,1,22.52-12.98Z" transform="translate(-1084.5 -1550.78)"/>
</svg>
