<?xml version="1.0" encoding="utf-8"?>
<!-- Generator: Adobe Illustrator 25.2.0, SVG Export Plug-In . SVG Version: 6.00 Build 0)  -->
<svg version="1.1" id="recording-marker-stop-graph"
	 xmlns="http://www.w3.org/2000/svg" xmlns:xlink="http://www.w3.org/1999/xlink" x="0px" y="0px" viewBox="0 0 597.6 1504.6"
	 style="enable-background:new 0 0 597.6 1504.6;" xml:space="preserve">
<style type="text/css">
	.st0{fill-rule:evenodd;clip-rule:evenodd;fill:#C83737;}
</style>
<path class="st0" d="M47.2,0H351c25.7,0,46.6,31.3,46.6,70l0,0v916.4c0,38.7-20.8,70-46.6,70l0,0H47.2c-25.7,0-46.6-31.3-46.6-70
	l0,0V70C0.6,31.3,21.5,0,47.2,0z"/>
<path id="Triangle_1" class="st0" d="M239.6,1467.5c-17.5,49.4-64.6,49.4-82.2,0L5.5,1039.4c-16.5-46.6,5.9-102.9,41.1-102.9h303.7
	c35.1,0,57.6,56.3,41.1,102.9L239.6,1467.5z"/>
</svg>
