<?xml version="1.0" encoding="UTF-8" standalone="no"?>
<svg
   xmlns:dc="http://purl.org/dc/elements/1.1/"
   xmlns:cc="http://creativecommons.org/ns#"
   xmlns:rdf="http://www.w3.org/1999/02/22-rdf-syntax-ns#"
   xmlns:svg="http://www.w3.org/2000/svg"
   xmlns="http://www.w3.org/2000/svg"
   width="400"
   height="165"
   viewBox="0 0 105.83333 43.656251"
   version="1.1"
   id="svg1327">
  <defs
     id="defs1321" />
  <metadata
     id="metadata1324">
    <rdf:RDF>
      <cc:Work
         rdf:about="">
        <dc:format>image/svg+xml</dc:format>
        <dc:type
           rdf:resource="http://purl.org/dc/dcmitype/StillImage" />
        <dc:title></dc:title>
      </cc:Work>
    </rdf:RDF>
  </metadata>
  <g
     id="layer1"
     transform="translate(0,-253.34373)">
    <path
       transform="matrix(1,0,-0.25881905,0.96592583,0,0)"
       style="opacity:1;fill:none;fill-opacity:1;fill-rule:nonzero;stroke:#ffffff;stroke-width:2.55472231;stroke-linecap:round;stroke-linejoin:round;stroke-miterlimit:4;stroke-dasharray:none;stroke-opacity:1;paint-order:markers fill stroke"
       d="m 79.124252,264.37158 h 89.019038 v 34.3878 H 79.124252 Z"
       id="rect868-8-0-0" />
    <path
       transform="matrix(1,0,-0.25881905,0.96592583,0,0)"
       style="opacity:1;fill:none;fill-opacity:1;fill-rule:nonzero;stroke:#ffffff;stroke-width:2.55472231;stroke-linecap:round;stroke-linejoin:round;stroke-miterlimit:4;stroke-dasharray:none;stroke-opacity:1;paint-order:markers fill stroke"
       d="m 85.767471,270.9053 h 89.019039 v 34.38781 H 85.767471 Z"
       id="rect868-7-5-8-3" />
    <g
       aria-label="CAPTURE"
       id="text906"
       style="font-size:13.0528px;line-height:1.25;font-family:'Wingdings 2';-inkscape-font-specification:'Wingdings 2, ';fill:#f9f9f9;fill-opacity:1;stroke-width:0.264583">
      <path
         d="M 29.301025,278.76744 H 31.8504 v -0.63734 h 0.637344 v -0.63734 h 1.274687 v 1.27468 h -0.637344 v 0.63735 h -0.637343 v 0.63734 h -3.824063 v -0.63734 h -0.637344 v -0.63735 h -0.637343 v -6.37343 h 0.637343 v -0.63735 h 0.637344 v -0.63734 h 3.824063 v 0.63734 h 0.637343 v 0.63735 h 0.637344 v 1.27468 h -1.274687 v -0.63734 H 31.8504 v -0.63734 h -2.549375 v 0.63734 h -0.637344 v 5.09875 h 0.637344 z"
         style="font-style:normal;font-variant:normal;font-weight:normal;font-stretch:normal;font-size:13.0528px;font-family:'VCR OSD Mono';-inkscape-font-specification:'VCR OSD Mono';fill:#f9f9f9;fill-opacity:1;stroke-width:0.264583"
         id="path852" />
      <path
         d="m 36.311806,276.21807 h 3.824063 v -1.91203 h -0.637344 v -0.63735 h -0.637344 v -0.63734 h -1.274687 v 0.63734 H 36.94915 v 0.63735 h -0.637344 z m 0,3.82406 h -1.274687 v -6.37344 h 0.637344 v -0.63734 h 0.637343 v -0.63734 h 0.637344 v -0.63735 h 0.637344 v -0.63734 h 1.274687 v 0.63734 h 0.637344 v 0.63735 h 0.637344 v 0.63734 h 0.637344 v 0.63734 h 0.637343 v 6.37344 h -1.274687 v -2.54937 h -3.824063 z"
         style="font-style:normal;font-variant:normal;font-weight:normal;font-stretch:normal;font-size:13.0528px;font-family:'VCR OSD Mono';-inkscape-font-specification:'VCR OSD Mono';fill:#f9f9f9;fill-opacity:1;stroke-width:0.264583"
         id="path854" />
      <path
         d="m 43.959931,272.39401 v 2.54937 h 3.186719 v -0.63734 h 0.637344 v -1.27469 H 47.14665 v -0.63734 z m 0,3.82406 v 3.82406 h -1.274687 v -8.92281 h 5.09875 v 0.63734 h 0.637344 v 0.63735 h 0.637344 v 2.54937 h -0.637344 v 0.63734 h -0.637344 v 0.63735 z"
         style="font-style:normal;font-variant:normal;font-weight:normal;font-stretch:normal;font-size:13.0528px;font-family:'VCR OSD Mono';-inkscape-font-specification:'VCR OSD Mono';fill:#f9f9f9;fill-opacity:1;stroke-width:0.264583"
         id="path856" />
      <path
         d="M 52.882745,272.39401 H 50.33337 v -1.27469 h 6.373437 v 1.27469 h -2.549375 v 7.64812 h -1.274687 z"
         style="font-style:normal;font-variant:normal;font-weight:normal;font-stretch:normal;font-size:13.0528px;font-family:'VCR OSD Mono';-inkscape-font-specification:'VCR OSD Mono';fill:#f9f9f9;fill-opacity:1;stroke-width:0.264583"
         id="path858" />
      <path
         d="m 58.618838,278.76744 h -0.637344 v -7.64812 h 1.274688 v 7.01078 h 0.637344 v 0.63734 h 2.549375 v -0.63734 h 0.637343 v -7.01078 h 1.274688 v 7.64812 h -0.637344 v 0.63735 h -0.637344 v 0.63734 h -3.824062 v -0.63734 h -0.637344 z"
         style="font-style:normal;font-variant:normal;font-weight:normal;font-stretch:normal;font-size:13.0528px;font-family:'VCR OSD Mono';-inkscape-font-specification:'VCR OSD Mono';fill:#f9f9f9;fill-opacity:1;stroke-width:0.264583"
         id="path860" />
      <path
         d="m 66.904308,272.39401 v 2.54937 h 3.186719 v -0.63734 h 0.637344 v -1.27469 h -0.637344 v -0.63734 z m 0.637344,3.82406 h -0.637344 v 3.82406 h -1.274687 v -8.92281 h 5.09875 v 0.63734 h 0.637344 v 0.63735 h 0.637343 v 2.54937 h -0.637343 v 0.63734 h -0.637344 v 0.63735 h -1.274688 v 0.63734 h 0.637344 v 0.63735 h 0.637344 v 0.63734 h 0.637344 v 0.63734 h 0.637343 v 1.27469 h -1.274687 v -0.63734 h -0.637344 v -0.63735 H 69.453683 V 278.1301 H 68.81634 v -0.63734 h -0.637344 v -0.63735 h -0.637344 z"
         style="font-style:normal;font-variant:normal;font-weight:normal;font-stretch:normal;font-size:13.0528px;font-family:'VCR OSD Mono';-inkscape-font-specification:'VCR OSD Mono';fill:#f9f9f9;fill-opacity:1;stroke-width:0.264583"
         id="path862" />
      <path
         d="m 79.651183,271.11932 v 1.27469 h -5.09875 v 2.54937 h 3.824063 v 1.27469 h -3.824063 v 2.54937 h 5.09875 v 1.27469 h -6.373437 v -8.92281 z"
         style="font-style:normal;font-variant:normal;font-weight:normal;font-stretch:normal;font-size:13.0528px;font-family:'VCR OSD Mono';-inkscape-font-specification:'VCR OSD Mono';fill:#f9f9f9;fill-opacity:1;stroke-width:0.264583"
         id="path864" />
    </g>
  </g>
</svg>
